<svg id="Layer_1" data-name="Layer 1" xmlns="http://www.w3.org/2000/svg" width="70.21mm" height="17.29mm" viewBox="0 0 199.01 49"><defs><style>.cls-1{fill:#0e203b;fill-rule:evenodd;}.cls-2,.cls-3{fill:none;opacity:0.5;isolation:isolate;}.cls-2{stroke:#0e203b;}.cls-3{stroke:#fff;stroke-linecap:square;stroke-width:10px;}</style></defs><title>Artboard 2</title><path class="cls-1" d="M187.51,34h-7.87V33.4c.93,0,1.7-.37,1.7-1.34v-18c0-1.31-.63-1.38-1.7-1.38v-.55H187c7.78,0,12,4.89,12,10.91C199,29.45,194.77,34,187.51,34ZM186,13.51H183.6V32.58h3.05c6,0,10.1-3.2,10.1-9S193.31,13.51,186,13.51Zm-17,21c-6.94,0-11.49-5.69-11.49-11.85S162.47,11.58,168,11.58c7.71,0,11.63,6.43,11.63,12A10.79,10.79,0,0,1,169,34.51Zm-.59-21.38c-5.35,0-8.65,3.82-8.65,9.6,0,5.1,3.75,10.23,9.1,10.23,4.41,0,8.47-3.69,8.47-9.47C177.37,18.33,173.83,13.13,168.45,13.13ZM145.7,34.51c-6.94,0-11.49-5.69-11.49-11.85s4.93-11.08,10.45-11.08c7.7,0,11.63,6.43,11.63,12A10.79,10.79,0,0,1,145.7,34.51Zm-.59-21.38c-5.34,0-8.65,3.82-8.65,9.6,0,5.1,3.76,10.23,9.1,10.23C150,33,154,29.27,154,23.49,154,18.33,150.49,13.13,145.11,13.13ZM133.4,16.06l-5.58,18.1h-1.5L122,21.49H122l-4,12.67h-1.53l-7-20.1a2.15,2.15,0,0,0-2.08-1.59v-.55a31.25,31.25,0,0,0,3.2.21,25.69,25.69,0,0,0,2.88-.21v.62c-.7,0-1.71.18-1.71.87a8.28,8.28,0,0,0,.6,2.47l5.17,15.36h.07l3.71-11.85-1.8-5.09c-.6-1.65-1.39-1.83-2.33-1.83v-.55c1.21.11,2.43.21,3.64.21a29.91,29.91,0,0,0,3.13-.21v.55c-.8,0-2.12.28-2.12,1.35a13.05,13.05,0,0,0,.83,3.24l4.76,14.18h.07l4.13-14.46a12.22,12.22,0,0,0,.59-3.24c0-.82-.83-1.07-1.87-1.07v-.55a23,23,0,0,0,2.74.21,27.13,27.13,0,0,0,3-.21v.55C134.48,12.47,134.1,13.82,133.4,16.06Zm-33.19-2.52V32.61h7.6c3.09,0,3.27-2.54,3.68-4.71h.7A44.63,44.63,0,0,0,111.7,34H96.25v-.55c.94,0,1.71-.38,1.71-1.35V13.85c0-1.31-.63-1.38-1.71-1.38v-.55a17.7,17.7,0,0,0,2.85.21,19.18,19.18,0,0,0,3-.21v.55C101.18,12.47,100.21,12.54,100.21,13.54ZM80,34v-.55c.94,0,1.7-.38,1.7-1.35V13.85c0-1.31-.62-1.38-1.7-1.38v-.55a17.7,17.7,0,0,0,2.85.21,19.29,19.29,0,0,0,3-.21v.55c-.9,0-1.87.07-1.87,1.07V32.61h7.6c3.09,0,3.27-2.54,3.68-4.71h.7A44.63,44.63,0,0,0,95.44,34ZM79,48.84a3.57,3.57,0,0,1-3.64-3.58,3.64,3.64,0,0,1,7.27,0A3.56,3.56,0,0,1,79,48.84Zm0-6.37a2.73,2.73,0,0,0-2.77,2.79,2.77,2.77,0,1,0,5.54,0A2.73,2.73,0,0,0,79,42.47Zm-8.7-8.31v-.55c.94,0,1.71-.38,1.71-1.34V13.85c0-1.31-.63-1.38-1.71-1.38v-.55a26,26,0,0,0,2.85.21A25.88,25.88,0,0,0,76,11.92v.55c-1.07,0-1.7.07-1.7,1.38V32.27c0,1,.76,1.34,1.7,1.34v.55c-1-.1-2-.21-2.81-.21S71.27,34.06,70.29,34.16Zm2.26,8a1.91,1.91,0,0,1,.91,1.64,1.88,1.88,0,0,1-1.67,1.93l2.2,3h-1l-2-2.91h-.36V48.7h-.86V41.81h1A3.7,3.7,0,0,1,72.55,42.13Zm-2,2.94h.28c.88,0,1.84-.16,1.84-1.26s-1-1.23-1.89-1.23h-.23Zm-6.79-3.26h3.73v.79H64.61v1.92h2.78v.79H64.61v2.6h2.86v.79H63.74Zm-3.22-7.65v-.55c1,0,1.77,0,1.77-1.38v-9H49.73v9c0,1.35.79,1.38,1.77,1.38v.55A19.5,19.5,0,0,0,48.93,34a31.23,31.23,0,0,0-3.16.21v-.55c.94,0,1.7-.38,1.7-1.34V13.85c0-1.31-.62-1.38-1.7-1.38v-.55a24.86,24.86,0,0,0,2.88.21,22.26,22.26,0,0,0,2.85-.21v.55c-.7,0-1.77.14-1.77,1.38v8H62.29v-8c0-1.24-1.07-1.38-1.77-1.38v-.55a21.93,21.93,0,0,0,2.92.21,26.07,26.07,0,0,0,2.81-.21v.55c-1.08,0-1.7.07-1.7,1.38V32.27c0,1,.76,1.34,1.7,1.34v.55c-1-.1-2-.21-3-.21A21.85,21.85,0,0,0,60.52,34.16ZM27.38,0h8.43V.51c-1.29,0-2.4.31-2.4,1.47V32.54c0,1.16,1.11,1.47,2.4,1.47v.46H27.38Zm-12.72,20h6.49V34.43H14.66Zm0-20h6.49V14.14H14.66ZM0,34c1.29,0,2.4-.31,2.4-1.47V1.94C2.4.77,1.29.46,0,.46V0H8.43V34.45H0ZM52.09,48.88h-1l-.83-2.05H47.83L47,48.88h-.95l3-7.25ZM50,46.15l-1-2.36-1,2.36ZM62,43.8c0,1.46-1.11,2-2.43,2h-.49V48.7h-.87V41.81h1C61.32,41.81,62,42.54,62,43.8ZM59.06,45h.27c.89,0,1.84-.16,1.84-1.25s-1-1.21-1.89-1.21h-.22ZM87.89,42.6H86.24v6.1h-.86V42.6H83.73v-.79h4.16ZM97,41.67a3.67,3.67,0,0,1,1.77.46v1a2.79,2.79,0,0,0-4.55,2.17A2.77,2.77,0,0,0,97,48a2.74,2.74,0,0,0,1.77-.65v1a3.77,3.77,0,0,1-1.77.44,3.57,3.57,0,0,1-3.64-3.58A3.63,3.63,0,0,1,97,41.67Zm6.92,0a3.63,3.63,0,0,1,3.64,3.59,3.64,3.64,0,0,1-7.27,0A3.63,3.63,0,0,1,103.94,41.67Zm0,6.37a2.78,2.78,0,0,0,2.78-2.78,2.78,2.78,0,1,0-5.55,0A2.77,2.77,0,0,0,103.94,48Zm8.37-1,2.39-5.43,1.42,7.18h-.9l-.81-4.55h0l-2.08,4.7-2.08-4.7h0l-.81,4.55h-.89l1.42-7.18ZM122,43.8c0,1.46-1.12,2-2.43,2H119V48.7h-.87V41.81h1C121.29,41.81,122,42.54,122,43.8ZM119,45h.27c.89,0,1.84-.16,1.84-1.25s-1-1.21-1.88-1.21H119Zm9.57,3.84h-.94l-.84-2.05h-2.47l-.83,2.05h-1l3-7.25Zm-2.06-2.73-1-2.36-1,2.36Zm9.26-4.31h.86V49l-5.21-5.41v5.13h-.86V41.51l5.21,5.41Zm5.08,2.92,1.72-3.09h.87l-2.18,3.87v3.29h-.89V45.44l-2.13-3.77h.88Zm5-3a1.59,1.59,0,1,1,0,3.17,1.59,1.59,0,1,1,0-3.17Zm0,2.84a1.26,1.26,0,0,0,0-2.52,1.26,1.26,0,0,0,0,2.52Zm.53-2a.45.45,0,0,1,.16.35.4.4,0,0,1-.33.36v0a.49.49,0,0,1,.29.39,1.5,1.5,0,0,0,.11.39h-.39a1.22,1.22,0,0,1-.13-.38c0-.17-.13-.25-.33-.25h-.17v.63h-.37V42.63a3.09,3.09,0,0,1,.61-.05A1.05,1.05,0,0,1,146.37,42.69Zm-.78.17v.45h.17c.2,0,.37-.07.37-.23s-.11-.24-.34-.24Z"/><path class="cls-2" d="M-2216.12-1655.57,1690.43,2250.85"/><path class="cls-3" d="M-1962.29-1458.62,1434,1937.64"/></svg>