<svg width="18px" height="18px" viewBox="0 0 18 18" version="1.1" xmlns="http://www.w3.org/2000/svg" xmlns:xlink="http://www.w3.org/1999/xlink">
    <!-- Generator: Sketch 49.3 (51167) - http://www.bohemiancoding.com/sketch -->
    <desc>Created with Sketch.</desc>
    <defs></defs>
    <g id="Symbols" stroke="none" stroke-width="1" fill="none" fill-rule="evenodd">
        <g id="przeczytaj-wpis" transform="translate(-136.000000, -6.000000)" fill="#000000">
            <g id="Group-2" transform="translate(136.000000, 6.000000)">
                <path d="M9.8636,9.8637 L15.5456,4.1927 L15.5456,7.2727 C15.5456,7.9497 16.0956,8.4997 16.7726,8.4997 C17.4496,8.4997 17.9996,7.9497 17.9996,7.2727 L17.9906,-0.0003 L10.7276,0.0087 C10.0386,0.0087 9.4996,0.5477 9.4996,1.2357 C9.4996,1.9127 10.0506,2.4637 10.7266,2.4637 L13.8026,2.4487 L8.1356,8.1347 C7.8996,8.3687 7.7706,8.6747 7.7706,8.9997 C7.7706,9.3247 7.8996,9.6307 8.1336,9.8617 C8.6056,10.3347 9.3966,10.3317 9.8636,9.8637 Z" id="Fill-1"></path>
                <path d="M15.5447,13.3612 L15.5447,15.5452 L2.4547,15.5452 L2.4547,2.4542 L4.6817,2.4542 C5.3577,2.4542 5.9087,1.9042 5.9087,1.2272 C5.9087,0.5502 5.3577,0.0002 4.6817,0.0002 L1.2267,0.0002 C0.5497,0.0002 -0.0003,0.5502 -0.0003,1.2272 L-0.0003,16.7732 C-0.0003,17.4492 0.5497,18.0002 1.2267,18.0002 L16.7727,18.0002 C17.4497,18.0002 17.9997,17.4492 17.9997,16.7732 L17.9997,13.3612 C17.9997,12.6842 17.4497,12.1342 16.7727,12.1342 C16.0957,12.1342 15.5447,12.6842 15.5447,13.3612 Z" id="Fill-4"></path>
            </g>
        </g>
    </g>
</svg>
