<svg xmlns="http://www.w3.org/2000/svg" viewBox="0 0 60.7917 88"><defs><style>.a{fill:#fcf60f;}</style></defs><title>flag</title><path class="a" d="M39.8316,6a4.6456,4.6456,0,0,0-2,8.8437c-.003,11.8795,0,24.3409,0,34.5938Q28.7665,70.32,19.7379,91.2187A2.1025,2.1025,0,0,0,21.5816,94h36.5a2.1019,2.1019,0,0,0,1.8125-2.7813Q50.852,70.3328,41.8316,49.4376V35.5938H78.3629a2.0093,2.0093,0,0,0,.906-3.8119L67.3314,25.8131q5.8162-2.9191,11.625-5.8437c1.8773-1.0839,1.5034-3.9063-.7813-3.9063H41.8314V14.8444a4.6457,4.6457,0,0,0-2-8.8438Zm0,4A.6528.6528,0,1,1,39.8,11.3047a.6534.6534,0,0,1-.625-.6485A.6276.6276,0,0,1,39.8316,10Zm2,10.0625H69.8941l-7.9375,3.9687a2,2,0,0,0,0,3.5625l8,4H41.8316Zm-2,34.8125c2.5105,5.8378,5.0593,11.6591,7.5625,17.5l-6.6875-3.25a2.1141,2.1141,0,0,0-1.75,0l-6.7187,3.25Q36.0249,63.6207,39.8316,54.875Zm0,18.2812,10,4.8438,5.1875,12H24.6129L29.8,78Z" transform="translate(-19.6041 -6)"/></svg>