<svg xmlns="http://www.w3.org/2000/svg" width="165.17" height="103.19"><path fill="#ffed00" fill-rule="evenodd" d="M36.59 56.88L69.44 0l32.86 56.88H36.59zM110.51 71.16l6.86 11.95H21.39l6.93-11.95h82.19z"/><text transform="translate(0 99.48)" font-size="13.7" fill="#fff" font-family="HelveticaNeueLTPro-MdCnO, Helvetica Neue LT Pro" font-weight="500" letter-spacing=".02em">P<tspan x="7.18" y="0" letter-spacing=".04em">R</tspan><tspan x="15.07" y="0">E</tspan><tspan x="21.99" y="0" letter-spacing=".04em">M</tspan><tspan x="32.44" y="0" letter-spacing=".04em">I</tspan><tspan x="36.03" y="0" letter-spacing=".04em">U</tspan><tspan x="43.91" y="0" letter-spacing=".03em">M </tspan><tspan x="57.91" y="0" letter-spacing=".03em">S</tspan><tspan x="65.47" y="0">P</tspan><tspan x="72.56" y="0" letter-spacing=".03em">O</tspan><tspan x="80.62" y="0" letter-spacing="-.01em">R</tspan><tspan x="87.89" y="0" letter-spacing="-.01em">T</tspan><tspan x="94.08" y="0" letter-spacing=".03em">S </tspan><tspan x="105.3" y="0" letter-spacing=".04em">N</tspan><tspan x="113.69" y="0" letter-spacing="0em">U</tspan><tspan x="121" y="0" letter-spacing="0em">T</tspan><tspan x="127.28" y="0" letter-spacing=".04em">R</tspan><tspan x="135.21" y="0" letter-spacing="0em">I</tspan><tspan x="138.22" y="0" letter-spacing="0em">T</tspan><tspan x="144.54" y="0" letter-spacing=".03em">I</tspan><tspan x="148.04" y="0" letter-spacing=".03em">O</tspan><tspan x="156.09" y="0" letter-spacing=".03em">N</tspan></text><path d="M61.61 63.93a1.43 1.43 0 011.47-1.41 1.4 1.4 0 011.47 1.41 1.42 1.42 0 01-1.47 1.47 1.45 1.45 0 01-1.47-1.47zm-4.35 0a5.82 5.82 0 1111.64 0 5.82 5.82 0 11-11.64 0zM110.45 62.58a.82.82 0 00-.8.8v6.24l-4.23.07v-6.44a5.08 5.08 0 015.09-5.09h2.26v4.42zM86.36 65a2.68 2.68 0 001-.19 1.45 1.45 0 001-1.34A1.49 1.49 0 0086.91 62a1.43 1.43 0 00-1.41 1 2.71 2.71 0 00-.06.55v9.93h-4.35v-10.3a5.83 5.83 0 019.19-4 8.36 8.36 0 011.53 1.84 6.77 6.77 0 01-.24 6.49 6.25 6.25 0 01-5.21 2.15V65zM80.9 58.29v4.35c-3.43 0-3.49.12-4.16 2.88-.43 1.84-1 4.17-4.17 4.17h-3.5v-4.6c3.93 0 3.81-.31 4.23-2.57.37-1.84.8-4.23 4.91-4.23zM40.39 69.62l.06-6.8a.8.8 0 00-.79-.79.82.82 0 00-.87.79v6.8l-4.22.07v-6.44a5.09 5.09 0 1110.17 0v6.37zM115.9 57.12a1.08 1.08 0 01.55.13.32.32 0 01.19.3.37.37 0 01-.19.37 1.21 1.21 0 01-.55.12h-.49v-.92zm.06-.18h-.92v2.39h.37v-1h.61l.49 1h.37l-.55-1.1a.72.72 0 00.43-.19.67.67 0 00.18-.43.6.6 0 00-.24-.55 1.37 1.37 0 00-.74-.12zm1.84 1.22a1.65 1.65 0 01-.18.74 1.33 1.33 0 01-.37.61 2.48 2.48 0 01-.67.43 2.29 2.29 0 01-.68.12 2.79 2.79 0 01-.74-.12 2.17 2.17 0 01-.61-.43 1.37 1.37 0 01-.43-.61 1.58 1.58 0 01-.12-.74 1.56 1.56 0 01.12-.73 1.37 1.37 0 01.43-.61 2.17 2.17 0 01.61-.43 2.43 2.43 0 01.74-.12 3.17 3.17 0 01.74.12 3.61 3.61 0 01.61.43 1.33 1.33 0 01.37.61 1.64 1.64 0 01.18.73zm-1.9-2.14a2 2 0 00-.86.18 5 5 0 00-.67.43 4 4 0 00-.43.74 1.85 1.85 0 000 1.59 1.55 1.55 0 00.43.68 2.09 2.09 0 00.73.49 1.77 1.77 0 00.8.18 2.16 2.16 0 00.8-.18 3 3 0 00.67-.49 2.81 2.81 0 00.49-.68 2.5 2.5 0 000-1.59 2.81 2.81 0 00-.49-.68 1.87 1.87 0 00-.67-.49 1.94 1.94 0 00-.8-.18z" fill="#fff" fill-rule="evenodd"/><path d="M97.51 63.93a1.4 1.4 0 011.47-1.41 1.43 1.43 0 011.47 1.41 1.45 1.45 0 01-1.47 1.47 1.42 1.42 0 01-1.47-1.47zm-4.35 0a5.83 5.83 0 115.82 5.88 5.65 5.65 0 01-5.82-5.88zM28.44 55a2.33 2.33 0 112.33 2.33A2.33 2.33 0 0128.44 55zm4.47 14.71h-4.3v-11.4h4.29v11.4zM50.61 60.37h.36a2.35 2.35 0 001-2.08h4.36c-.07 1.59-.25 3.31-1.41 4.41 1.65 1.84 1.41 4.6 1.41 7l-4.3-.07c0-1.59.43-3.85-1.22-4.78h-.2v4.85h-4.22V53h4.22v7.41z" fill="#fff" fill-rule="evenodd"/></svg>