<?xml version="1.0" encoding="utf-8"?>
<!-- Generator: Adobe Illustrator 22.1.0, SVG Export Plug-In . SVG Version: 6.00 Build 0)  -->
<svg version="1.1" id="Layer_1" xmlns="http://www.w3.org/2000/svg" xmlns:xlink="http://www.w3.org/1999/xlink" x="0px" y="0px"
	 viewBox="0 0 100 100" style="enable-background:new 0 0 100 100;" xml:space="preserve">
<style type="text/css">
	.st0{fill:#FFFFFF;}
	.st1{fill:#FFFFFF;}
</style>
<path class="st0" d="M93,83h-8c-1.1,0-2,0.9-2,2v2H68.5C84.1,79.9,95,64.2,95,46c0-1.1-0.9-2-2-2s-2,0.9-2,2c0,22.6-18.4,41-41,41
	S9,68.6,9,46c0-1.1-0.9-2-2-2s-2,0.9-2,2c0,18.2,10.9,33.9,26.5,41H17v-2c0-1.1-0.9-2-2-2H7c-1.1,0-2,0.9-2,2v8c0,1.1,0.9,2,2,2h8
	c1.1,0,2-0.9,2-2v-2h66v2c0,1.1,0.9,2,2,2h8c1.1,0,2-0.9,2-2v-8C95,83.9,94.1,83,93,83z"/>
<path class="st1" d="M50,87c0.2,0,0.4,0,0.5-0.1c0.1,0,0.1,0,0.2-0.1c0.1,0,0.2-0.1,0.3-0.2s0.2-0.1,0.3-0.2s0.2-0.2,0.3-0.4l23-37
	c0.4-0.6,0.4-1.4,0.1-2L62.2,23.9l7.6-16.1c0.3-0.6,0.2-1.3-0.1-1.9S68.7,5,68,5H32c-0.7,0-1.3,0.3-1.7,0.9s-0.4,1.3-0.1,1.9
	l7.6,16.1L25.2,47c-0.3,0.6-0.3,1.4,0.1,2l23,37c0.1,0.1,0.2,0.3,0.3,0.4s0.2,0.2,0.3,0.2c0.1,0.1,0.2,0.1,0.3,0.2
	c0,0,0.1,0,0.2,0.1C49.6,87,49.8,87,50,87z M35.2,9h29.7l-6.1,13H41.3L35.2,9z M48,78L29.3,47.9L41.2,26h17.6l11.9,21.9L52,78V52.7
	c2.9-0.9,5-3.5,5-6.7c0-3.9-3.1-7-7-7s-7,3.1-7,7c0,3.2,2.1,5.8,5,6.7L48,78z M47,46c0-1.7,1.3-3,3-3s3,1.3,3,3c0,1.6-1.3,3-3,3
	S47,47.6,47,46z M13,91H9v-4h4V91z M91,91h-4v-4h4V91z"/>
</svg>
